<svg width="14" height="10" viewBox="0 0 14 10" fill="none" xmlns="http://www.w3.org/2000/svg">
<path d="M6.97991 5.02876L4.72991 2.77876L3.60491 1.65376L2.47991 0.528763C2.47991 0.528763 1.92859 0.0584226 1.49998 0.0286478C0.674027 -0.0287299 -0.0436622 0.830863 0.00207287 1.52899C0.0303612 1.9608 0.479907 2.52876 0.479907 2.52876L2.10491 4.15376L3.72991 5.77876L5.35491 7.40376L6.97991 9.02876L8.60491 7.40376L10.2299 5.77876L11.8549 4.15376L13.4799 2.52876C13.4799 2.52876 13.9642 1.96764 14 1.52899C14.0573 0.827108 13.5255 0.179704 13 0.0283969C12.3994 -0.144519 11.4799 0.528763 11.4799 0.528763L10.3549 1.65376L9.22991 2.77876L6.97991 5.02876Z" fill="white"/>
</svg>
