<svg width="24" height="24" viewBox="0 0 24 24" fill="none" xmlns="http://www.w3.org/2000/svg">
<path d="M5.28309 16.5963C5.00179 16.8776 4.84375 17.2591 4.84375 17.657C4.84375 18.0548 5.00179 18.4363 5.28309 18.7176C5.56439 18.9989 5.94593 19.157 6.34375 19.157C6.74158 19.157 7.12311 18.9989 7.40441 18.7176L12.0006 14.1214L16.5968 18.7176C16.8781 18.9989 17.2596 19.157 17.6575 19.157C18.0553 19.157 18.4368 18.9989 18.7181 18.7176C18.9994 18.4363 19.1575 18.0548 19.1575 17.657C19.1575 17.2591 18.9994 16.8776 18.7181 16.5963L14.1219 12.0001L18.7181 7.40392C18.9994 7.12262 19.1575 6.74109 19.1575 6.34326C19.1575 5.94544 18.9994 5.56391 18.7181 5.2826C18.4368 5.0013 18.0553 4.84326 17.6575 4.84326C17.2596 4.84326 16.8781 5.0013 16.5968 5.2826L12.0006 9.8788L7.40441 5.2826C7.12311 5.0013 6.74158 4.84326 6.34375 4.84326C5.94593 4.84326 5.56439 5.0013 5.28309 5.2826C5.00179 5.56391 4.84375 5.94544 4.84375 6.34326C4.84375 6.74109 5.00179 7.12262 5.28309 7.40392L9.87928 12.0001L5.28309 16.5963Z" fill="white"/>
</svg>
