<svg width="167" height="59" viewBox="0 0 167 59" fill="none" xmlns="http://www.w3.org/2000/svg">
<path d="M1.35156 5.63046L4.53403 13.1136C4.53403 13.1136 5.91108 12.0592 6.85637 11.4793C7.70186 10.9607 8.20218 10.712 9.09269 10.2751C9.98371 9.83801 10.482 9.58125 11.415 9.24299C12.4952 8.85139 13.1255 8.6878 14.2534 8.46887C15.3823 8.24977 16.0299 8.19286 17.1779 8.12482C18.3515 8.05526 20.1883 8.12482 20.1883 8.12482L21.4785 2.10395C21.4785 2.10395 21.4785 2.01789 21.9086 1.93192C22.2621 1.86124 23.0115 1.87815 23.7148 1.93192C24.7724 2.01278 25.3264 2.33708 26.3812 2.448C26.9834 2.51132 27.7371 2.53397 27.9294 2.53397C28.1015 2.53397 28.3694 2.48241 28.4455 2.36194C28.5217 2.24148 27.4882 1.84916 26.8973 1.58787C25.8085 1.10645 25.1292 1.01055 23.9729 0.727745L23.9154 0.713686C22.7543 0.429687 22.0804 0.264857 20.8764 0.125657C19.4079 -0.0441281 18.5694 -0.00800472 17.0919 0.0396449C15.5751 0.088557 14.7162 0.123002 13.2213 0.383695C11.2213 0.732461 10.1219 1.10297 8.23257 1.84591C6.52696 2.51659 5.60333 2.99071 4.01795 3.91021C2.946 4.53192 1.35156 5.63046 1.35156 5.63046Z" fill="#0A8FBF"/>
<path d="M28.2735 2.87806L27.9294 4.34023C27.9294 4.34023 27.192 4.19827 26.7253 4.08219C26.0446 3.91291 25.5857 3.83914 24.919 3.65213C24.0701 3.41403 23.7265 3.38422 23.0267 3.05004C22.6056 2.84895 22.1666 2.61994 21.9946 2.44796C21.8225 2.27597 22.0806 2.18992 22.0806 2.18992C22.0806 2.18992 23.0336 2.18497 23.8008 2.27593C24.626 2.37376 25.0452 2.57088 25.8651 2.70599C26.7624 2.85386 28.2735 2.87806 28.2735 2.87806Z" fill="#0A8FBF"/>
<path d="M22.8547 3.39409C22.4355 3.18901 21.8225 2.79201 21.8225 2.79201L20.1023 10.1031C20.1023 10.1031 20.5656 10.4788 20.9624 10.7052C21.4148 10.9632 22.4528 11.2513 23.3708 11.4793C24.6304 11.7921 25.3596 11.8643 26.6392 12.0814C28.1802 12.3428 29.0725 12.3339 30.5958 12.6835C32.3145 13.0779 33.3521 13.3214 34.8965 14.0597C36.2077 14.6864 36.8464 14.9582 37.9069 15.952C38.9022 16.8846 39.4239 17.4963 40.0572 18.7044C40.6787 19.8899 40.7797 20.5966 41.0033 21.7148C41.227 22.8329 41.1754 24.9833 41.1754 24.9833C41.1754 24.9833 41.8251 24.8876 42.2075 24.7252C42.6106 24.5541 42.7974 24.3779 43.1537 24.1232C43.8888 23.5974 44.8739 22.5749 44.8739 22.5749C44.8739 22.5749 46.1975 23.1528 46.9382 23.6931C47.6485 24.2112 48.5724 25.2413 48.5724 25.2413C48.5724 25.2413 48.7111 22.9282 48.5724 21.4568C48.4605 20.2692 48.3693 19.5974 48.0564 18.4463C47.7748 17.4106 47.5533 16.8435 47.1102 15.866C46.5512 14.6327 46.1713 13.9614 45.39 12.8555C44.5112 11.6116 43.9448 10.9466 42.8096 9.93109C41.4001 8.67018 40.468 8.09138 38.767 7.2647C37.3241 6.56345 36.4628 6.33231 34.8965 5.88846C33.489 5.48963 33.0442 5.41344 31.8943 5.21651L31.8 5.20036C30.2681 4.93785 29.3742 5.03913 27.8434 4.77029C26.6556 4.5617 25.9593 4.41057 24.833 4.08219C24.0172 3.84436 23.618 3.76756 22.8547 3.39409Z" fill="#0A8FBF"/>
<path d="M18.4648 30.4881L48.6552 32.3803V29.6279H18.4648V30.4881Z" fill="#0A8FBF"/>
<path d="M0.318475 58.4424L48.6574 33.2407L48.6574 32.8106L43.8407 32.5526L0.318371 57.3242L0.318475 58.4424Z" fill="#0A8FBF"/>
<path d="M4.10171 38.8314C4.03174 39.2003 3.92969 39.7775 3.92969 39.7775H6.08L6.42405 38.8314C6.42405 38.8314 7.08268 36.5701 7.54221 35.1328C7.89805 34.0199 8.48835 32.2944 8.48835 32.2944C8.48835 32.2944 8.62945 31.9355 8.8324 31.8643C8.95919 31.8199 9.04967 31.8199 9.17645 31.8643C9.3794 31.9355 9.5205 32.2944 9.5205 32.2944L10.2086 34.0147L11.4988 37.1111L12.5309 39.7775H14.9393L13.133 35.3909C13.133 35.3909 11.7774 31.8643 11.7568 31.0902C11.7524 30.9223 11.7568 30.8281 11.7568 30.6602C11.7568 29.9212 11.7567 29.5019 11.6708 28.7679C11.6111 28.2575 11.5463 28.0067 11.4988 27.4777C11.4533 26.9714 11.4988 26.1875 11.4988 26.1875C11.4988 26.1875 11.668 25.6998 11.9289 25.6714C12.1697 25.6453 12.3589 25.9295 12.4449 26.0155C12.617 26.1875 12.8691 26.9044 13.133 27.4777C13.5481 28.3792 13.8211 29.284 14.1652 29.8C14.3233 30.0372 14.4166 30.2103 14.6813 30.3161C14.9308 30.4159 15.1488 30.4696 15.3694 30.3161C15.5543 30.1874 15.7134 29.8533 15.7134 29.628C15.7134 29.37 15.6747 29.1682 15.6274 28.7679C15.5801 28.3676 15.226 27.6078 14.9393 26.8756C14.5663 25.9228 14.4756 25.2836 13.9932 24.3812C13.7161 23.8631 13.5517 23.5894 13.133 23.1771C12.6937 22.7444 11.7568 22.403 11.7568 22.403L11.3268 23.6071C11.3268 23.6071 10.9599 24.6421 10.8107 25.3274C10.5669 26.4477 10.6387 28.2518 10.6387 28.2518L7.54221 27.9938C7.54221 27.9938 7.55579 26.3446 7.80025 25.3274C8.05387 24.2721 8.8324 22.747 8.8324 22.747L9.5205 21.3708C9.5205 21.3708 8.83281 20.9649 8.48835 20.5107C8.16107 20.0791 7.80025 19.3065 7.80025 19.3065L5.82196 15.2639L4.27374 16.038C4.27374 16.038 5.9061 19.8226 6.33804 21.4568C6.48794 22.024 6.68209 22.919 6.68209 22.919C6.68209 22.919 7.02614 24.2698 7.02614 24.6393C7.02614 25.9295 6.11383 28.8187 6.08 29.456C6.04617 30.0933 6.10695 30.4526 6.08 31.0902C6.05819 31.6063 4.68305 35.7657 4.10171 38.8314Z" fill="#727271"/>
<path d="M9.00443 27.7357L9.86455 27.0476C9.86455 27.0476 9.87745 25.8392 9.95057 25.0693C10.0179 24.36 10.2086 23.2631 10.2086 23.2631L10.9827 22.833L10.4666 21.8869L9.69253 22.3169L9.86455 23.2631C9.86455 23.2631 9.58732 23.5113 9.43449 23.6931C9.06707 24.1303 8.95669 24.4524 8.74639 24.9833C8.47935 25.6575 8.31633 26.7896 8.31633 26.7896L9.00443 27.7357Z" fill="#727271"/>
<circle cx="11.4121" cy="19.3064" r="2.23633" fill="#727271"/>
<circle cx="4.70403" cy="14.4897" r="1.03215" fill="#727271"/>
<path fill-rule="evenodd" clip-rule="evenodd" d="M17.7769 29.6279H0.402344V30.4881H1.52051V35.7348H0.402344V36.681H1.52051V39.6914H0.402344V41.2396H17.7769V39.6914H17.0028V36.767H17.7769V35.7348H17.0028V30.5741H17.7769V29.6279ZM2.38063 30.5741H16.1426V35.7348H2.38063V30.5741ZM16.1426 39.6914V36.767H2.38063V39.6914H16.1426Z" fill="#0A8FBF"/>
<path d="M4.53125 14.2317L0.918723 5.88847" stroke="#0A8FBF" stroke-width="2"/>
<path fill-rule="evenodd" clip-rule="evenodd" d="M96.7581 34.6343C97.8133 34.6343 98.718 34.8522 99.4722 35.2882C100.231 35.7198 100.813 36.3258 101.218 37.1062C101.628 37.8823 101.833 38.787 101.833 39.8204C101.833 40.8494 101.628 41.754 101.218 42.5345C100.813 43.3106 100.231 43.9166 99.4722 44.3525C98.718 44.7842 97.8133 45 96.7581 45C95.703 45 94.7961 44.7842 94.0374 44.3525C93.2832 43.9166 92.7011 43.3106 92.2914 42.5345C91.8859 41.754 91.6832 40.8494 91.6832 39.8204C91.6832 38.787 91.8859 37.8823 92.2914 37.1062C92.7011 36.3258 93.2832 35.7198 94.0374 35.2882C94.7961 34.8522 95.703 34.6343 96.7581 34.6343ZM96.7779 37.0016C96.3811 37.0016 96.0454 37.1194 95.7707 37.3549C95.5004 37.5903 95.2933 37.9172 95.1494 38.3358C95.0098 38.7543 94.94 39.2427 94.94 39.8008C94.94 40.3501 95.0098 40.834 95.1494 41.2527C95.2933 41.6712 95.5004 41.998 95.7707 42.2336C96.0454 42.4689 96.3811 42.5867 96.7779 42.5867C97.1614 42.5866 97.4863 42.4689 97.7521 42.2336C98.0182 41.998 98.221 41.6712 98.3605 41.2527C98.5044 40.834 98.5764 40.3501 98.5764 39.8008C98.5764 39.2427 98.5044 38.7543 98.3605 38.3358C98.221 37.9172 98.0182 37.5903 97.7521 37.3549C97.4863 37.1194 97.1614 37.0017 96.7779 37.0016Z" fill="#333333"/>
<path fill-rule="evenodd" clip-rule="evenodd" d="M64.822 34.6343C65.4629 34.6343 66.0536 34.7105 66.5942 34.863C67.1348 35.0113 67.6057 35.2293 68.0069 35.5171C68.408 35.8005 68.7176 36.1493 68.9356 36.5636C69.1579 36.9776 69.269 37.4507 69.269 37.9825V44.8103H66.2608V43.4109H66.1822C66.0035 43.7508 65.7746 44.0386 65.4956 44.2741C65.2209 44.5095 64.896 44.686 64.521 44.8037C64.1505 44.9215 63.7319 44.9805 63.2655 44.9805C62.6245 44.9805 62.0555 44.8735 61.5584 44.6598C61.0658 44.4419 60.6756 44.1149 60.3879 43.679C60.1045 43.2387 59.9627 42.687 59.9627 42.0243C59.9627 41.4662 60.0609 40.9954 60.2571 40.6117C60.4533 40.228 60.7235 39.9163 61.0679 39.6765C61.4124 39.4366 61.8092 39.2557 62.2583 39.1336C62.7074 39.0071 63.187 38.9223 63.6971 38.8787C64.2682 38.8263 64.7282 38.7718 65.077 38.7151C65.4258 38.6541 65.6787 38.569 65.8356 38.46C65.9969 38.3467 66.0776 38.1876 66.0776 37.9825V37.9499C66.0776 37.6143 65.962 37.3548 65.7309 37.1717C65.4999 36.9885 65.1881 36.897 64.7957 36.897C64.3728 36.897 64.0327 36.9885 63.7755 37.1717C63.5183 37.3548 63.3548 37.6077 63.285 37.9304L60.3355 37.8256C60.4227 37.2153 60.6473 36.6702 61.0092 36.1906C61.3754 35.7067 61.8768 35.3275 62.5133 35.0528C63.1542 34.7737 63.9238 34.6343 64.822 34.6343ZM66.0972 40.2846C66.0057 40.3326 65.8945 40.3763 65.7637 40.4154C65.6372 40.4547 65.4977 40.4919 65.3451 40.5267C65.1925 40.5616 65.0356 40.5921 64.8743 40.6182C64.7129 40.6443 64.5581 40.6684 64.4099 40.6901C64.1091 40.7381 63.8518 40.8122 63.6382 40.9125C63.4289 41.0128 63.2675 41.1437 63.1542 41.305C63.0452 41.4619 62.9908 41.6493 62.9908 41.8673C62.9908 42.1986 63.1084 42.4516 63.3439 42.626C63.5837 42.8004 63.8867 42.8876 64.2529 42.8876C64.5974 42.8876 64.907 42.8178 65.1817 42.6784C65.4607 42.5389 65.683 42.347 65.8487 42.1029C66.0143 41.8543 66.0972 41.5665 66.0972 41.2396V40.2846Z" fill="#333333"/>
<path fill-rule="evenodd" clip-rule="evenodd" d="M75.5605 34.7651C76.8554 34.7651 77.8757 34.9982 78.6213 35.4646C79.3712 35.9268 79.7462 36.605 79.7462 37.4988C79.7462 38.0176 79.5346 38.4644 79.1118 38.8393C78.6933 39.21 78.098 39.4607 77.3264 39.5915C78.0065 39.6264 78.571 39.7615 79.0201 39.9968C79.4691 40.2324 79.8049 40.531 80.0272 40.893C80.2497 41.2548 80.3608 41.6407 80.3608 42.0505C80.3608 42.6434 80.2016 43.1448 79.8833 43.5547C79.5651 43.9645 79.0987 44.2763 78.4839 44.49C77.8736 44.7035 77.1235 44.8103 76.2342 44.8103H71.2246V34.7651H75.5605ZM74.2003 42.4952H76.2342C76.5742 42.4952 76.8402 42.4145 77.032 42.2532C77.2283 42.0919 77.3264 41.8694 77.3264 41.5861C77.3264 41.281 77.2283 41.0411 77.032 40.8667C76.8402 40.6923 76.5742 40.6052 76.2342 40.6052H74.2003V42.4952ZM74.2003 38.8721H75.6457C75.8767 38.8721 76.0751 38.8372 76.2407 38.7674C76.4064 38.6976 76.5327 38.5974 76.6199 38.4666C76.7116 38.3358 76.7573 38.1789 76.7573 37.9957C76.7573 37.7299 76.6506 37.5205 76.437 37.368C76.2276 37.2153 75.9355 37.1391 75.5605 37.1391H74.2003V38.8721Z" fill="#333333"/>
<path d="M90.851 37.211H87.6397V44.8103H84.6052V37.211H81.4334V34.7651H90.851V37.211Z" fill="#333333"/>
<path fill-rule="evenodd" clip-rule="evenodd" d="M107.807 34.7651C109.102 34.7651 110.123 34.9982 110.868 35.4646C111.618 35.9268 111.993 36.605 111.993 37.4988C111.993 38.0176 111.782 38.4644 111.359 38.8393C110.94 39.21 110.345 39.4607 109.573 39.5915C110.253 39.6264 110.818 39.7615 111.267 39.9968C111.716 40.2324 112.052 40.531 112.274 40.893C112.497 41.2548 112.608 41.6407 112.608 42.0505C112.608 42.6434 112.448 43.1448 112.13 43.5547C111.812 43.9645 111.346 44.2763 110.731 44.49C110.12 44.7035 109.37 44.8103 108.481 44.8103H103.471V34.7651H107.807ZM106.447 42.4952H108.481C108.821 42.4952 109.087 42.4145 109.279 42.2532C109.475 42.0919 109.573 41.8694 109.573 41.5861C109.573 41.281 109.475 41.0411 109.279 40.8667C109.087 40.6923 108.821 40.6052 108.481 40.6052H106.447V42.4952ZM106.447 38.8721H107.893C108.124 38.8721 108.322 38.8372 108.488 38.7674C108.653 38.6976 108.78 38.5974 108.867 38.4666C108.958 38.3358 109.004 38.1789 109.004 37.9957C109.004 37.7299 108.897 37.5205 108.684 37.368C108.475 37.2153 108.182 37.1391 107.807 37.1391H106.447V38.8721Z" fill="#333333"/>
<path fill-rule="evenodd" clip-rule="evenodd" d="M117.218 37.6686H119.115C120.497 37.6686 121.581 37.9936 122.365 38.6432C123.15 39.2885 123.545 40.1648 123.549 41.2722C123.545 41.9916 123.364 42.6172 123.006 43.1491C122.653 43.6767 122.145 44.0866 121.482 44.3787C120.824 44.6664 120.035 44.8103 119.115 44.8103H114.19V34.7651H117.218V37.6686ZM117.218 42.3644H119.115C119.534 42.3644 119.878 42.262 120.148 42.0569C120.419 41.8521 120.556 41.5883 120.56 41.2656C120.556 40.9256 120.419 40.6487 120.148 40.4351C119.878 40.2214 119.534 40.1146 119.115 40.1146H117.218V42.3644Z" fill="#333333"/>
<path d="M127.65 44.8103H124.452V34.7651H127.65V44.8103Z" fill="#333333"/>
<path d="M132.703 42.3447H135.221V34.7651H138.249V42.3447H140.767V34.7651H143.795V44.8103H129.675V34.7651H132.703V42.3447Z" fill="#333333"/>
<path d="M148.934 38.5059H149.64L152.08 34.7651H155.781L152.4 39.7942L155.814 44.8103H152.066L149.862 41.475H148.934V44.8103H145.736V34.7651H148.934V38.5059Z" fill="#333333"/>
<path d="M159.843 40.6706L163.054 34.7651H166.128V44.8103H163.099V38.8851L159.895 44.8103H156.814V34.7651H159.843V40.6706Z" fill="#333333"/>
<path fill-rule="evenodd" clip-rule="evenodd" d="M80.75 16.2176C81.4475 16.2176 82.0994 16.4008 82.7054 16.767C83.3158 17.1332 83.8086 17.6979 84.1835 18.4609C84.5585 19.2239 84.746 20.1962 84.746 21.3777C84.746 22.5157 84.5649 23.4683 84.2031 24.2356C83.8455 25.003 83.3617 25.5785 82.7512 25.9622C82.1452 26.3458 81.4716 26.5377 80.7305 26.5377C80.2246 26.5377 79.7864 26.4548 79.4157 26.2891C79.0453 26.1235 78.7334 25.9055 78.4805 25.6352C78.232 25.3649 78.0402 25.0749 77.905 24.7653H77.8398V30.1609H74.6416V16.3484H77.8069V18.0685H77.905C78.0358 17.7633 78.2211 17.469 78.461 17.1856C78.7051 16.9022 79.0146 16.6711 79.3896 16.4923C79.769 16.3092 80.2224 16.2176 80.75 16.2176ZM79.6251 18.716C79.2328 18.716 78.899 18.8228 78.6244 19.0365C78.3498 19.2501 78.1383 19.5553 77.9901 19.952C77.8463 20.3487 77.7743 20.8218 77.7743 21.3711C77.7743 21.9118 77.8463 22.3826 77.9901 22.7838C78.1383 23.1849 78.3498 23.4966 78.6244 23.719C78.9035 23.937 79.2371 24.0459 79.6251 24.0459C80.0174 24.0459 80.351 23.937 80.6256 23.719C80.9003 23.4966 81.1075 23.1849 81.2471 22.7838C81.391 22.3826 81.4629 21.9118 81.4629 21.3711C81.4629 20.8305 81.391 20.3618 81.2471 19.9651C81.1075 19.5683 80.9003 19.2609 80.6256 19.0429C80.3554 18.8249 80.0217 18.716 79.6251 18.716Z" fill="#333333"/>
<path fill-rule="evenodd" clip-rule="evenodd" d="M118.065 23.9283H119.635V29.3564H116.6V26.3938H110.891V29.3564H107.778V23.9283H108.53C108.757 23.815 108.938 23.5969 109.073 23.2743C109.208 22.9473 109.315 22.5658 109.393 22.1299C109.476 21.6895 109.537 21.2316 109.576 20.7564C109.62 20.2768 109.659 19.8255 109.694 19.4026L109.93 16.3484H118.065V23.9283ZM112.546 19.4026C112.485 20.4839 112.389 21.3908 112.258 22.1232C112.127 22.8557 111.922 23.4575 111.643 23.9283H115.083V18.729H112.598L112.546 19.4026Z" fill="#333333"/>
<path fill-rule="evenodd" clip-rule="evenodd" d="M91.0193 16.2176C91.7344 16.2176 92.3883 16.3288 92.9812 16.5512C93.5743 16.7735 94.0866 17.1028 94.5182 17.5388C94.9499 17.9748 95.2857 18.5132 95.5254 19.1541C95.7652 19.7906 95.8851 20.5209 95.8851 21.345V22.1429H89.1883V22.2279C89.1883 22.6377 89.2688 22.9975 89.4302 23.307C89.5915 23.6122 89.8204 23.8498 90.1167 24.0198C90.4133 24.1898 90.7664 24.2748 91.1763 24.2748C91.4597 24.2748 91.7169 24.2357 91.9481 24.1572C92.1791 24.0787 92.3774 23.9632 92.5431 23.8106C92.7087 23.658 92.833 23.4705 92.9159 23.2481L95.8524 23.3331C95.7302 23.9915 95.4622 24.5648 95.048 25.0531C94.6382 25.5371 94.0997 25.9143 93.4327 26.1846C92.7655 26.4506 91.9938 26.5835 91.1174 26.5835C90.0667 26.5835 89.1599 26.3763 88.3969 25.9622C87.6383 25.5436 87.0539 24.9485 86.6441 24.1768C86.2387 23.4007 86.036 22.4786 86.036 21.4105C86.036 20.3728 86.2408 19.4659 86.6506 18.6898C87.0605 17.9094 87.6382 17.3033 88.3837 16.8717C89.1293 16.4357 90.0079 16.2176 91.0193 16.2176ZM91.0848 18.5263C90.7273 18.5263 90.4068 18.6069 90.1235 18.7682C89.84 18.9252 89.6153 19.141 89.4497 19.4157C89.2924 19.6722 89.2061 19.9622 89.1904 20.2856H92.9093C92.905 19.9455 92.8243 19.6424 92.6675 19.3765C92.5105 19.1105 92.2947 18.9034 92.02 18.7552C91.7497 18.6026 91.4379 18.5263 91.0848 18.5263Z" fill="#333333"/>
<path fill-rule="evenodd" clip-rule="evenodd" d="M125.503 16.2176C126.144 16.2176 126.735 16.294 127.275 16.4466C127.816 16.5949 128.287 16.8128 128.688 17.1006C129.089 17.3839 129.398 17.7327 129.616 18.1469C129.839 18.5611 129.95 19.0342 129.95 19.5662V26.3938H126.942V24.9942H126.863C126.684 25.3343 126.456 25.6221 126.176 25.8575C125.902 26.0929 125.577 26.2696 125.202 26.3873C124.831 26.5051 124.413 26.5638 123.946 26.5638C123.305 26.5638 122.736 26.4571 122.24 26.2435C121.747 26.0255 121.356 25.6984 121.069 25.2624C120.785 24.8221 120.644 24.2705 120.644 23.6078C120.644 23.0498 120.742 22.5789 120.938 22.1952C121.134 21.8115 121.405 21.4998 121.749 21.26C122.093 21.0202 122.49 20.8393 122.939 20.7172C123.388 20.5908 123.868 20.5056 124.378 20.462C124.949 20.4097 125.409 20.3553 125.758 20.2986C126.107 20.2376 126.36 20.1526 126.517 20.0436C126.678 19.9303 126.759 19.7711 126.759 19.5662V19.5334C126.759 19.1977 126.643 18.9383 126.412 18.7552C126.181 18.572 125.869 18.4805 125.477 18.4805C125.054 18.4805 124.714 18.5721 124.457 18.7552C124.199 18.9383 124.036 19.1911 123.966 19.5138L121.017 19.4092C121.104 18.7988 121.328 18.2537 121.69 17.7741C122.056 17.2902 122.558 16.9109 123.194 16.6362C123.835 16.3571 124.605 16.2176 125.503 16.2176ZM126.778 21.8682C126.687 21.9162 126.575 21.9598 126.445 21.999C126.318 22.0383 126.179 22.0753 126.026 22.1102C125.873 22.145 125.716 22.1756 125.555 22.2018C125.394 22.2279 125.239 22.2519 125.091 22.2737C124.79 22.3217 124.533 22.3957 124.319 22.496C124.11 22.5963 123.949 22.7271 123.835 22.8884C123.726 23.0454 123.672 23.2329 123.672 23.4509C123.672 23.7822 123.789 24.0351 124.025 24.2095C124.265 24.3839 124.568 24.4711 124.934 24.4711C125.278 24.4711 125.588 24.4013 125.863 24.2618C126.142 24.1222 126.364 23.9304 126.53 23.6862C126.695 23.4377 126.778 23.15 126.778 22.823V21.8682Z" fill="#333333"/>
<path fill-rule="evenodd" clip-rule="evenodd" d="M73.1996 26.3938H69.7203L68.8374 23.5817H64.2119L63.3308 26.3938H59.8516L64.3707 13H68.6804L73.1996 26.3938ZM64.9823 21.1227H68.0654L66.5747 16.3747H66.47L64.9823 21.1227Z" fill="#333333"/>
<path d="M100.546 20.122H103.522V16.3484H106.53V26.3938H103.522V22.5615H100.546V26.3938H97.5183V16.3484H100.546V20.122Z" fill="#333333"/>
</svg>
