<svg width="167" height="62" viewBox="0 0 167 62" fill="none" xmlns="http://www.w3.org/2000/svg">
<path d="M1.53516 5.63046L4.71762 13.1136C4.71762 13.1136 6.09467 12.0592 7.03996 11.4793C7.88545 10.9607 8.38578 10.712 9.27629 10.2751C10.1673 9.83801 10.6656 9.58125 11.5986 9.24299C12.6788 8.85139 13.3091 8.6878 14.437 8.46887C15.5659 8.24977 16.2135 8.19286 17.3615 8.12482C18.5351 8.05526 20.3719 8.12482 20.3719 8.12482L21.6621 2.10395C21.6621 2.10395 21.6621 2.01789 22.0922 1.93192C22.4457 1.86124 23.1951 1.87815 23.8984 1.93192C24.9559 2.01278 25.51 2.33708 26.5648 2.448C27.167 2.51132 27.9207 2.53397 28.113 2.53397C28.2851 2.53397 28.553 2.48241 28.6291 2.36194C28.7052 2.24148 27.6718 1.84916 27.0809 1.58787C25.9921 1.10645 25.3128 1.01055 24.1565 0.727745L24.099 0.713686C22.9379 0.429687 22.264 0.264857 21.06 0.125657C19.5914 -0.0441281 18.753 -0.00800472 17.2755 0.0396449C15.7587 0.088557 14.8998 0.123002 13.4049 0.383695C11.4049 0.732461 10.3055 1.10297 8.41616 1.84591C6.71055 2.51659 5.78693 2.99071 4.20155 3.91021C3.1296 4.53192 1.53516 5.63046 1.53516 5.63046Z" fill="#0A8FBF"/>
<path d="M28.4571 2.87806L28.113 4.34023C28.113 4.34023 27.3756 4.19827 26.9089 4.08219C26.2282 3.91291 25.7693 3.83914 25.1026 3.65213C24.2537 3.41403 23.9101 3.38422 23.2103 3.05004C22.7892 2.84895 22.3502 2.61994 22.1782 2.44796C22.0061 2.27597 22.2642 2.18992 22.2642 2.18992C22.2642 2.18992 23.2172 2.18497 23.9844 2.27593C24.8096 2.37376 25.2288 2.57088 26.0487 2.70599C26.946 2.85386 28.4571 2.87806 28.4571 2.87806Z" fill="#0A8FBF"/>
<path d="M23.0383 3.39409C22.6191 3.18901 22.0061 2.79201 22.0061 2.79201L20.2859 10.1031C20.2859 10.1031 20.7492 10.4788 21.146 10.7052C21.5984 10.9632 22.6364 11.2513 23.5544 11.4793C24.814 11.7921 25.5432 11.8643 26.8228 12.0814C28.3638 12.3428 29.2561 12.3339 30.7794 12.6835C32.4981 13.0779 33.5356 13.3214 35.08 14.0597C36.3913 14.6864 37.03 14.9582 38.0905 15.952C39.0858 16.8846 39.6075 17.4963 40.2408 18.7044C40.8623 19.8899 40.9633 20.5966 41.1869 21.7148C41.4106 22.8329 41.359 24.9833 41.359 24.9833C41.359 24.9833 42.0087 24.8876 42.3911 24.7252C42.7942 24.5541 42.981 24.3779 43.3373 24.1232C44.0724 23.5974 45.0575 22.5749 45.0575 22.5749C45.0575 22.5749 46.3811 23.1528 47.1218 23.6931C47.8321 24.2112 48.756 25.2413 48.756 25.2413C48.756 25.2413 48.8947 22.9282 48.756 21.4568C48.6441 20.2692 48.5528 19.5974 48.24 18.4463C47.9584 17.4106 47.7369 16.8435 47.2938 15.866C46.7348 14.6327 46.3549 13.9614 45.5736 12.8555C44.6948 11.6116 44.1284 10.9466 42.9932 9.93109C41.5837 8.67018 40.6516 8.09138 38.9506 7.2647C37.5077 6.56345 36.6464 6.33231 35.08 5.88846C33.6726 5.48963 33.2278 5.41344 32.0779 5.21651L31.9836 5.20036C30.4517 4.93785 29.5578 5.03913 28.027 4.77029C26.8392 4.5617 26.1429 4.41057 25.0166 4.08219C24.2008 3.84436 23.8016 3.76756 23.0383 3.39409Z" fill="#0A8FBF"/>
<path d="M18.6484 30.4881L48.8388 32.3803V29.6279H18.6484V30.4881Z" fill="#0A8FBF"/>
<path d="M0.502069 58.4424L48.841 33.2407L48.841 32.8106L44.0243 32.5526L0.501965 57.3242L0.502069 58.4424Z" fill="#0A8FBF"/>
<path d="M4.28531 38.8314C4.21534 39.2003 4.11328 39.7775 4.11328 39.7775H6.2636L6.60765 38.8314C6.60765 38.8314 7.26627 36.5701 7.72581 35.1328C8.08165 34.0199 8.67195 32.2944 8.67195 32.2944C8.67195 32.2944 8.81305 31.9355 9.016 31.8643C9.14278 31.8199 9.23326 31.8199 9.36005 31.8643C9.563 31.9355 9.7041 32.2944 9.7041 32.2944L10.3922 34.0147L11.6824 37.1111L12.7145 39.7775H15.1229L13.3166 35.3909C13.3166 35.3909 11.961 31.8643 11.9404 31.0902C11.936 30.9223 11.9404 30.8281 11.9404 30.6602C11.9404 29.9212 11.9403 29.5019 11.8544 28.7679C11.7947 28.2575 11.7299 28.0067 11.6824 27.4777C11.6369 26.9714 11.6824 26.1875 11.6824 26.1875C11.6824 26.1875 11.8516 25.6998 12.1124 25.6714C12.3533 25.6453 12.5425 25.9295 12.6285 26.0155C12.8005 26.1875 13.0527 26.9044 13.3166 27.4777C13.7317 28.3792 14.0047 29.284 14.3488 29.8C14.5069 30.0372 14.6002 30.2103 14.8649 30.3161C15.1144 30.4159 15.3324 30.4696 15.5529 30.3161C15.7379 30.1874 15.897 29.8533 15.897 29.628C15.897 29.37 15.8583 29.1682 15.811 28.7679C15.7637 28.3676 15.4095 27.6078 15.1229 26.8756C14.7499 25.9228 14.6592 25.2836 14.1767 24.3812C13.8997 23.8631 13.7353 23.5894 13.3166 23.1771C12.8773 22.7444 11.9404 22.403 11.9404 22.403L11.5104 23.6071C11.5104 23.6071 11.1435 24.6421 10.9943 25.3274C10.7504 26.4477 10.8223 28.2518 10.8223 28.2518L7.72581 27.9938C7.72581 27.9938 7.73938 26.3446 7.98385 25.3274C8.23747 24.2721 9.016 22.747 9.016 22.747L9.7041 21.3708C9.7041 21.3708 9.0164 20.9649 8.67195 20.5107C8.34466 20.0791 7.98385 19.3065 7.98385 19.3065L6.00556 15.2639L4.45733 16.038C4.45733 16.038 6.0897 19.8226 6.52163 21.4568C6.67153 22.024 6.86568 22.919 6.86568 22.919C6.86568 22.919 7.20973 24.2698 7.20973 24.6393C7.20973 25.9295 6.29743 28.8187 6.2636 29.456C6.22976 30.0933 6.29055 30.4526 6.2636 31.0902C6.24178 31.6063 4.86665 35.7657 4.28531 38.8314Z" fill="#727271"/>
<path d="M9.18802 27.7357L10.0481 27.0476C10.0481 27.0476 10.061 25.8392 10.1342 25.0693C10.2015 24.36 10.3922 23.2631 10.3922 23.2631L11.1663 22.833L10.6502 21.8869L9.87612 22.3169L10.0481 23.2631C10.0481 23.2631 9.77091 23.5113 9.61808 23.6931C9.25066 24.1303 9.14028 24.4524 8.92998 24.9833C8.66294 25.6575 8.49992 26.7896 8.49992 26.7896L9.18802 27.7357Z" fill="#727271"/>
<circle cx="11.5957" cy="19.3064" r="2.23633" fill="#727271"/>
<circle cx="4.88762" cy="14.4897" r="1.03215" fill="#727271"/>
<path fill-rule="evenodd" clip-rule="evenodd" d="M17.9605 29.6279H0.585938V30.4881H1.7041V35.7348H0.585938V36.681H1.7041V39.6914H0.585938V41.2396H17.9605V39.6914H17.1864V36.767H17.9605V35.7348H17.1864V30.5741H17.9605V29.6279ZM2.56423 30.5741H16.3262V35.7348H2.56423V30.5741ZM16.3262 39.6914V36.767H2.56423V39.6914H16.3262Z" fill="#0A8FBF"/>
<path d="M4.71484 14.2317L1.10232 5.88847" stroke="#0A8FBF" stroke-width="2"/>
<path fill-rule="evenodd" clip-rule="evenodd" d="M96.9417 34.6343C97.9969 34.6343 98.9016 34.8522 99.6558 35.2882C100.414 35.7198 100.996 36.3258 101.402 37.1062C101.812 37.8823 102.017 38.787 102.017 39.8204C102.017 40.8494 101.812 41.754 101.402 42.5345C100.996 43.3106 100.414 43.9166 99.6558 44.3525C98.9016 44.7842 97.9969 45 96.9417 45C95.8866 45 94.9797 44.7842 94.221 44.3525C93.4668 43.9166 92.8847 43.3106 92.4749 42.5345C92.0695 41.754 91.8668 40.8494 91.8668 39.8204C91.8668 38.787 92.0695 37.8823 92.4749 37.1062C92.8847 36.3258 93.4668 35.7198 94.221 35.2882C94.9797 34.8522 95.8866 34.6343 96.9417 34.6343ZM96.9615 37.0016C96.5647 37.0016 96.229 37.1194 95.9543 37.3549C95.684 37.5903 95.4769 37.9172 95.333 38.3358C95.1934 38.7543 95.1236 39.2427 95.1236 39.8008C95.1236 40.3501 95.1934 40.834 95.333 41.2527C95.4769 41.6712 95.684 41.998 95.9543 42.2336C96.229 42.4689 96.5647 42.5867 96.9615 42.5867C97.345 42.5866 97.6699 42.4689 97.9357 42.2336C98.2018 41.998 98.4046 41.6712 98.5441 41.2527C98.688 40.834 98.76 40.3501 98.76 39.8008C98.76 39.2427 98.688 38.7543 98.5441 38.3358C98.4046 37.9172 98.2018 37.5903 97.9357 37.3549C97.6699 37.1194 97.345 37.0017 96.9615 37.0016Z" fill="#333333"/>
<path fill-rule="evenodd" clip-rule="evenodd" d="M65.0056 34.6343C65.6465 34.6343 66.2372 34.7105 66.7778 34.863C67.3184 35.0113 67.7893 35.2293 68.1905 35.5171C68.5916 35.8005 68.9012 36.1493 69.1192 36.5636C69.3415 36.9776 69.4526 37.4507 69.4526 37.9825V44.8103H66.4444V43.4109H66.3658C66.1871 43.7508 65.9582 44.0386 65.6792 44.2741C65.4045 44.5095 65.0796 44.686 64.7046 44.8037C64.3341 44.9215 63.9155 44.9805 63.449 44.9805C62.8081 44.9805 62.2391 44.8735 61.742 44.6598C61.2494 44.4419 60.8592 44.1149 60.5715 43.679C60.2881 43.2387 60.1463 42.687 60.1463 42.0243C60.1463 41.4662 60.2445 40.9954 60.4407 40.6117C60.6368 40.228 60.9071 39.9163 61.2515 39.6765C61.596 39.4366 61.9928 39.2557 62.4419 39.1336C62.891 39.0071 63.3706 38.9223 63.8807 38.8787C64.4518 38.8263 64.9118 38.7718 65.2606 38.7151C65.6094 38.6541 65.8622 38.569 66.0192 38.46C66.1805 38.3467 66.2612 38.1876 66.2612 37.9825V37.9499C66.2612 37.6143 66.1456 37.3548 65.9145 37.1717C65.6835 36.9885 65.3717 36.897 64.9793 36.897C64.5564 36.897 64.2163 36.9885 63.9591 37.1717C63.7019 37.3548 63.5383 37.6077 63.4686 37.9304L60.5191 37.8256C60.6063 37.2153 60.8309 36.6702 61.1928 36.1906C61.559 35.7067 62.0604 35.3275 62.6969 35.0528C63.3378 34.7737 64.1074 34.6343 65.0056 34.6343ZM66.2808 40.2846C66.1893 40.3326 66.0781 40.3763 65.9473 40.4154C65.8208 40.4547 65.6813 40.4919 65.5287 40.5267C65.3761 40.5616 65.2192 40.5921 65.0579 40.6182C64.8965 40.6443 64.7417 40.6684 64.5935 40.6901C64.2927 40.7381 64.0354 40.8122 63.8218 40.9125C63.6125 41.0128 63.4511 41.1437 63.3378 41.305C63.2288 41.4619 63.1744 41.6493 63.1744 41.8673C63.1744 42.1986 63.292 42.4516 63.5275 42.626C63.7673 42.8004 64.0703 42.8876 64.4365 42.8876C64.781 42.8876 65.0906 42.8178 65.3653 42.6784C65.6443 42.5389 65.8666 42.347 66.0323 42.1029C66.1979 41.8543 66.2808 41.5665 66.2808 41.2396V40.2846Z" fill="#333333"/>
<path fill-rule="evenodd" clip-rule="evenodd" d="M75.7441 34.7651C77.039 34.7651 78.0593 34.9982 78.8049 35.4646C79.5548 35.9268 79.9298 36.605 79.9298 37.4988C79.9298 38.0176 79.7182 38.4644 79.2954 38.8393C78.8769 39.21 78.2816 39.4607 77.51 39.5915C78.1901 39.6264 78.7546 39.7615 79.2037 39.9968C79.6527 40.2324 79.9885 40.531 80.2108 40.893C80.4332 41.2548 80.5444 41.6407 80.5444 42.0505C80.5444 42.6434 80.3852 43.1448 80.0669 43.5547C79.7487 43.9645 79.2823 44.2763 78.6675 44.49C78.0572 44.7035 77.3071 44.8103 76.4178 44.8103H71.4082V34.7651H75.7441ZM74.3839 42.4952H76.4178C76.7578 42.4952 77.0238 42.4145 77.2156 42.2532C77.4119 42.0919 77.51 41.8694 77.51 41.5861C77.51 41.281 77.4119 41.0411 77.2156 40.8667C77.0238 40.6923 76.7578 40.6052 76.4178 40.6052H74.3839V42.4952ZM74.3839 38.8721H75.8292C76.0603 38.8721 76.2587 38.8372 76.4243 38.7674C76.59 38.6976 76.7163 38.5973 76.8035 38.4666C76.8952 38.3358 76.9409 38.1789 76.9409 37.9957C76.9409 37.7299 76.8342 37.5205 76.6206 37.368C76.4112 37.2153 76.119 37.1391 75.7441 37.1391H74.3839V38.8721Z" fill="#333333"/>
<path d="M91.0346 37.211H87.8233V44.8103H84.7888V37.211H81.617V34.7651H91.0346V37.211Z" fill="#333333"/>
<path fill-rule="evenodd" clip-rule="evenodd" d="M107.991 34.7651C109.286 34.7651 110.306 34.9982 111.052 35.4646C111.802 35.9268 112.177 36.605 112.177 37.4988C112.177 38.0176 111.965 38.4644 111.542 38.8393C111.124 39.21 110.528 39.4607 109.757 39.5915C110.437 39.6264 111.001 39.7615 111.451 39.9968C111.9 40.2324 112.235 40.531 112.458 40.893C112.68 41.2548 112.791 41.6407 112.791 42.0505C112.791 42.6434 112.632 43.1448 112.314 43.5547C111.996 43.9645 111.529 44.2763 110.914 44.49C110.304 44.7035 109.554 44.8103 108.665 44.8103H103.655V34.7651H107.991ZM106.631 42.4952H108.665C109.005 42.4952 109.271 42.4145 109.462 42.2532C109.659 42.0919 109.757 41.8694 109.757 41.5861C109.757 41.281 109.659 41.0411 109.462 40.8667C109.271 40.6923 109.005 40.6052 108.665 40.6052H106.631V42.4952ZM106.631 38.8721H108.076C108.307 38.8721 108.506 38.8372 108.671 38.7674C108.837 38.6976 108.963 38.5973 109.05 38.4666C109.142 38.3358 109.188 38.1789 109.188 37.9957C109.188 37.7299 109.081 37.5205 108.867 37.368C108.658 37.2153 108.366 37.1391 107.991 37.1391H106.631V38.8721Z" fill="#333333"/>
<path fill-rule="evenodd" clip-rule="evenodd" d="M117.402 37.6686H119.299C120.681 37.6686 121.764 37.9936 122.549 38.6432C123.334 39.2885 123.728 40.1648 123.733 41.2722C123.728 41.9916 123.547 42.6172 123.19 43.1491C122.837 43.6767 122.329 44.0866 121.666 44.3787C121.008 44.6664 120.219 44.8103 119.299 44.8103H114.374V34.7651H117.402V37.6686ZM117.402 42.3644H119.299C119.717 42.3644 120.062 42.262 120.332 42.0569C120.602 41.8521 120.74 41.5883 120.744 41.2656C120.74 40.9256 120.602 40.6487 120.332 40.4351C120.062 40.2214 119.717 40.1146 119.299 40.1146H117.402V42.3644Z" fill="#333333"/>
<path d="M127.833 44.8103H124.635V34.7651H127.833V44.8103Z" fill="#333333"/>
<path d="M132.887 42.3447H135.405V34.7651H138.433V42.3447H140.951V34.7651H143.979V44.8103H129.859V34.7651H132.887V42.3447Z" fill="#333333"/>
<path d="M149.118 38.5059H149.824L152.263 34.7651H155.965L152.584 39.7942L155.998 44.8103H152.25L150.046 41.475H149.118V44.8103H145.919V34.7651H149.118V38.5059Z" fill="#333333"/>
<path d="M160.026 40.6706L163.237 34.7651H166.311V44.8103H163.283V38.8851L160.079 44.8103H156.998V34.7651H160.026V40.6706Z" fill="#333333"/>
<path fill-rule="evenodd" clip-rule="evenodd" d="M80.9336 16.2176C81.6311 16.2176 82.283 16.4008 82.889 16.767C83.4993 17.1332 83.9922 17.6979 84.3671 18.4609C84.7421 19.2239 84.9296 20.1962 84.9296 21.3777C84.9296 22.5156 84.7485 23.4683 84.3867 24.2356C84.0291 25.003 83.5453 25.5785 82.9348 25.9622C82.3288 26.3458 81.6552 26.5377 80.914 26.5377C80.4082 26.5377 79.97 26.4548 79.5993 26.2891C79.2289 26.1235 78.917 25.9055 78.6641 25.6352C78.4156 25.3649 78.2238 25.0749 78.0886 24.7653H78.0234V30.1609H74.8252V16.3484H77.9905V18.0685H78.0886C78.2194 17.7633 78.4047 17.469 78.6446 17.1856C78.8887 16.9022 79.1982 16.6711 79.5732 16.4923C79.9526 16.3092 80.406 16.2176 80.9336 16.2176ZM79.8087 18.716C79.4163 18.716 79.0826 18.8228 78.808 19.0365C78.5334 19.2501 78.3219 19.5553 78.1737 19.952C78.0299 20.3487 77.9579 20.8218 77.9579 21.3711C77.9579 21.9118 78.0299 22.3826 78.1737 22.7838C78.3219 23.1849 78.5333 23.4966 78.808 23.719C79.0871 23.937 79.4207 24.0459 79.8087 24.0459C80.201 24.0459 80.5346 23.937 80.8092 23.719C81.0839 23.4966 81.2911 23.1849 81.4307 22.7838C81.5746 22.3826 81.6465 21.9118 81.6465 21.3711C81.6465 20.8305 81.5746 20.3618 81.4307 19.9651C81.2911 19.5683 81.0839 19.2609 80.8092 19.0429C80.539 18.8249 80.2053 18.716 79.8087 18.716Z" fill="#333333"/>
<path fill-rule="evenodd" clip-rule="evenodd" d="M118.249 23.9283H119.818V29.3564H116.784V26.3938H111.075V29.3564H107.961V23.9283H108.714C108.94 23.815 109.121 23.5969 109.256 23.2743C109.392 22.9473 109.498 22.5658 109.577 22.1299C109.66 21.6895 109.721 21.2316 109.76 20.7564C109.804 20.2768 109.843 19.8255 109.878 19.4026L110.113 16.3484H118.249V23.9283ZM112.729 19.4026C112.668 20.4839 112.572 21.3908 112.442 22.1232C112.311 22.8557 112.106 23.4575 111.827 23.9283H115.267V18.729H112.781L112.729 19.4026Z" fill="#333333"/>
<path fill-rule="evenodd" clip-rule="evenodd" d="M91.2029 16.2176C91.918 16.2176 92.5719 16.3288 93.1648 16.5512C93.7579 16.7735 94.2702 17.1028 94.7018 17.5388C95.1334 17.9748 95.4693 18.5132 95.709 19.1541C95.9488 19.7906 96.0687 20.5209 96.0687 21.345V22.1429H89.3719V22.2279C89.3719 22.6377 89.4524 22.9975 89.6138 23.307C89.7751 23.6122 90.004 23.8498 90.3003 24.0198C90.5968 24.1898 90.95 24.2748 91.3599 24.2748C91.6433 24.2748 91.9005 24.2357 92.1317 24.1572C92.3627 24.0787 92.561 23.9632 92.7267 23.8106C92.8923 23.658 93.0166 23.4705 93.0995 23.2481L96.0359 23.3331C95.9138 23.9915 95.6458 24.5648 95.2315 25.0531C94.8218 25.5371 94.2833 25.9143 93.6163 26.1846C92.9491 26.4506 92.1774 26.5835 91.301 26.5835C90.2503 26.5835 89.3435 26.3763 88.5805 25.9622C87.8218 25.5436 87.2375 24.9485 86.8277 24.1768C86.4223 23.4007 86.2196 22.4786 86.2196 21.4105C86.2196 20.3728 86.4244 19.4659 86.8342 18.6898C87.2441 17.9094 87.8218 17.3033 88.5673 16.8717C89.3129 16.4357 90.1915 16.2176 91.2029 16.2176ZM91.2684 18.5263C90.9109 18.5263 90.5904 18.6069 90.3071 18.7682C90.0236 18.9252 89.7989 19.141 89.6333 19.4157C89.476 19.6722 89.3897 19.9622 89.374 20.2856H93.0929C93.0886 19.9455 93.0079 19.6424 92.8511 19.3765C92.6941 19.1105 92.4783 18.9034 92.2036 18.7552C91.9333 18.6026 91.6215 18.5263 91.2684 18.5263Z" fill="#333333"/>
<path fill-rule="evenodd" clip-rule="evenodd" d="M125.686 16.2176C126.327 16.2176 126.918 16.294 127.459 16.4466C127.999 16.5949 128.47 16.8128 128.871 17.1006C129.273 17.3839 129.582 17.7327 129.8 18.1469C130.022 18.5611 130.134 19.0342 130.134 19.5662V26.3938H127.125V24.9942H127.047C126.868 25.3343 126.639 25.6221 126.36 25.8575C126.085 26.0929 125.761 26.2696 125.386 26.3873C125.015 26.5051 124.596 26.5638 124.13 26.5638C123.489 26.5638 122.92 26.4571 122.423 26.2435C121.93 26.0255 121.54 25.6984 121.252 25.2624C120.969 24.8221 120.827 24.2705 120.827 23.6078C120.827 23.0498 120.926 22.5789 121.122 22.1952C121.318 21.8115 121.588 21.4998 121.933 21.26C122.277 21.0202 122.674 20.8393 123.123 20.7172C123.572 20.5908 124.051 20.5056 124.562 20.462C125.133 20.4097 125.593 20.3553 125.942 20.2986C126.29 20.2376 126.543 20.1526 126.7 20.0436C126.861 19.9303 126.942 19.7711 126.942 19.5662V19.5334C126.942 19.1977 126.827 18.9383 126.596 18.7552C126.365 18.572 126.053 18.4805 125.66 18.4805C125.237 18.4805 124.897 18.5721 124.64 18.7552C124.383 18.9383 124.219 19.1911 124.15 19.5138L121.2 19.4092C121.287 18.7988 121.512 18.2537 121.874 17.7741C122.24 17.2902 122.741 16.9109 123.378 16.6362C124.019 16.3571 124.788 16.2176 125.686 16.2176ZM126.962 21.8682C126.87 21.9162 126.759 21.9598 126.628 21.999C126.502 22.0383 126.362 22.0753 126.21 22.1102C126.057 22.145 125.9 22.1756 125.739 22.2018C125.578 22.2279 125.423 22.2519 125.274 22.2737C124.974 22.3217 124.716 22.3957 124.503 22.496C124.294 22.5963 124.132 22.7271 124.019 22.8884C123.91 23.0454 123.855 23.2329 123.855 23.4509C123.855 23.7822 123.973 24.0351 124.209 24.2095C124.448 24.3839 124.751 24.4711 125.117 24.4711C125.462 24.4711 125.771 24.4013 126.046 24.2618C126.325 24.1222 126.547 23.9304 126.713 23.6862C126.879 23.4377 126.962 23.15 126.962 22.823V21.8682Z" fill="#333333"/>
<path fill-rule="evenodd" clip-rule="evenodd" d="M73.3832 26.3938H69.9039L69.021 23.5817H64.3955L63.5144 26.3938H60.0352L64.5543 13H68.864L73.3832 26.3938ZM65.1659 21.1227H68.249L66.7583 16.3747H66.6536L65.1659 21.1227Z" fill="#333333"/>
<path d="M100.73 20.122H103.706V16.3484H106.714V26.3938H103.706V22.5615H100.73V26.3938H97.7019V16.3484H100.73V20.122Z" fill="#333333"/>
</svg>
