<svg width="50" height="62" viewBox="0 0 50 62" fill="none" xmlns="http://www.w3.org/2000/svg">
<path d="M1.53516 5.63046L4.71762 13.1136C4.71762 13.1136 6.09467 12.0592 7.03996 11.4793C7.88545 10.9607 8.38578 10.712 9.27629 10.2751C10.1673 9.83801 10.6656 9.58125 11.5986 9.24299C12.6788 8.85139 13.3091 8.6878 14.437 8.46887C15.5659 8.24977 16.2135 8.19286 17.3615 8.12482C18.5351 8.05526 20.3719 8.12482 20.3719 8.12482L21.6621 2.10395C21.6621 2.10395 21.6621 2.01789 22.0922 1.93192C22.4457 1.86124 23.1951 1.87815 23.8984 1.93192C24.9559 2.01278 25.51 2.33708 26.5648 2.448C27.167 2.51132 27.9207 2.53397 28.113 2.53397C28.2851 2.53397 28.553 2.48241 28.6291 2.36194C28.7052 2.24148 27.6718 1.84916 27.0809 1.58787C25.9921 1.10645 25.3128 1.01055 24.1565 0.727745L24.099 0.713686C22.9379 0.429687 22.264 0.264857 21.06 0.125657C19.5914 -0.0441281 18.753 -0.00800472 17.2755 0.0396449C15.7587 0.088557 14.8998 0.123002 13.4049 0.383695C11.4049 0.732461 10.3055 1.10297 8.41616 1.84591C6.71055 2.51659 5.78693 2.99071 4.20155 3.91021C3.1296 4.53193 1.53516 5.63046 1.53516 5.63046Z" fill="#0A8FBF"/>
<path d="M28.4571 2.87806L28.113 4.34023C28.113 4.34023 27.3756 4.19827 26.9089 4.08219C26.2282 3.91291 25.7693 3.83914 25.1026 3.65213C24.2537 3.41403 23.9101 3.38422 23.2103 3.05004C22.7892 2.84895 22.3502 2.61994 22.1782 2.44796C22.0061 2.27597 22.2642 2.18992 22.2642 2.18992C22.2642 2.18992 23.2172 2.18497 23.9844 2.27593C24.8096 2.37376 25.2288 2.57088 26.0487 2.70599C26.946 2.85386 28.4571 2.87806 28.4571 2.87806Z" fill="#0A8FBF"/>
<path d="M23.0383 3.39409C22.6191 3.18901 22.0061 2.79201 22.0061 2.79201L20.2859 10.1031C20.2859 10.1031 20.7492 10.4788 21.146 10.7052C21.5984 10.9632 22.6364 11.2513 23.5544 11.4793C24.814 11.7921 25.5432 11.8643 26.8228 12.0814C28.3638 12.3428 29.2561 12.3339 30.7794 12.6835C32.4981 13.0779 33.5356 13.3214 35.08 14.0597C36.3913 14.6864 37.03 14.9582 38.0905 15.952C39.0858 16.8846 39.6075 17.4963 40.2408 18.7044C40.8623 19.8899 40.9633 20.5966 41.1869 21.7148C41.4106 22.8329 41.359 24.9833 41.359 24.9833C41.359 24.9833 42.0087 24.8877 42.3911 24.7252C42.7942 24.5541 42.981 24.3779 43.3373 24.1232C44.0724 23.5974 45.0575 22.5749 45.0575 22.5749C45.0575 22.5749 46.3811 23.1528 47.1218 23.6931C47.8321 24.2112 48.756 25.2413 48.756 25.2413C48.756 25.2413 48.8947 22.9282 48.756 21.4568C48.6441 20.2692 48.5528 19.5974 48.24 18.4463C47.9584 17.4106 47.7369 16.8435 47.2938 15.866C46.7348 14.6327 46.3549 13.9614 45.5736 12.8555C44.6948 11.6116 44.1284 10.9466 42.9932 9.93109C41.5837 8.67018 40.6516 8.09138 38.9506 7.2647C37.5077 6.56345 36.6464 6.33231 35.08 5.88846C33.6726 5.48963 33.2278 5.41344 32.0779 5.21651L31.9836 5.20036C30.4517 4.93785 29.5578 5.03913 28.027 4.77029C26.8392 4.5617 26.1429 4.41057 25.0166 4.08219C24.2008 3.84436 23.8016 3.76756 23.0383 3.39409Z" fill="#0A8FBF"/>
<path d="M18.6484 30.4881L48.8388 32.3803V29.6279H18.6484V30.4881Z" fill="#0A8FBF"/>
<path d="M0.502069 58.4424L48.841 33.2407L48.841 32.8106L44.0243 32.5526L0.501965 57.3242L0.502069 58.4424Z" fill="#0A8FBF"/>
<path d="M4.28531 38.8314C4.21534 39.2003 4.11328 39.7775 4.11328 39.7775H6.2636L6.60765 38.8314C6.60765 38.8314 7.26627 36.5701 7.72581 35.1328C8.08165 34.0199 8.67195 32.2944 8.67195 32.2944C8.67195 32.2944 8.81305 31.9355 9.016 31.8643C9.14278 31.8199 9.23326 31.8199 9.36005 31.8643C9.563 31.9355 9.7041 32.2944 9.7041 32.2944L10.3922 34.0147L11.6824 37.1111L12.7145 39.7775H15.1229L13.3166 35.3909C13.3166 35.3909 11.961 31.8643 11.9404 31.0902C11.936 30.9223 11.9404 30.8281 11.9404 30.6602C11.9404 29.9212 11.9403 29.5019 11.8544 28.7679C11.7947 28.2575 11.7299 28.0067 11.6824 27.4777C11.6369 26.9714 11.6824 26.1875 11.6824 26.1875C11.6824 26.1875 11.8516 25.6998 12.1124 25.6714C12.3533 25.6453 12.5425 25.9295 12.6285 26.0155C12.8005 26.1875 13.0527 26.9044 13.3166 27.4777C13.7317 28.3792 14.0047 29.284 14.3488 29.8C14.5069 30.0372 14.6002 30.2103 14.8649 30.3161C15.1144 30.4159 15.3324 30.4696 15.5529 30.3161C15.7379 30.1874 15.897 29.8533 15.897 29.628C15.897 29.37 15.8583 29.1682 15.811 28.7679C15.7637 28.3676 15.4095 27.6078 15.1229 26.8756C14.7499 25.9228 14.6592 25.2836 14.1767 24.3812C13.8997 23.8631 13.7353 23.5894 13.3166 23.1771C12.8773 22.7444 11.9404 22.403 11.9404 22.403L11.5104 23.6071C11.5104 23.6071 11.1435 24.6421 10.9943 25.3274C10.7504 26.4477 10.8223 28.2518 10.8223 28.2518L7.72581 27.9938C7.72581 27.9938 7.73938 26.3446 7.98385 25.3274C8.23747 24.2721 9.016 22.747 9.016 22.747L9.7041 21.3708C9.7041 21.3708 9.0164 20.9649 8.67195 20.5107C8.34466 20.0791 7.98385 19.3065 7.98385 19.3065L6.00556 15.2639L4.45733 16.038C4.45733 16.038 6.0897 19.8226 6.52163 21.4568C6.67153 22.024 6.86568 22.919 6.86568 22.919C6.86568 22.919 7.20973 24.2698 7.20973 24.6393C7.20973 25.9295 6.29743 28.8187 6.2636 29.456C6.22976 30.0933 6.29055 30.4526 6.2636 31.0902C6.24178 31.6063 4.86665 35.7657 4.28531 38.8314Z" fill="#727271"/>
<path d="M9.18802 27.7357L10.0481 27.0476C10.0481 27.0476 10.061 25.8392 10.1342 25.0693C10.2015 24.36 10.3922 23.2631 10.3922 23.2631L11.1663 22.833L10.6502 21.8869L9.87612 22.3169L10.0481 23.2631C10.0481 23.2631 9.77091 23.5113 9.61808 23.6931C9.25066 24.1303 9.14028 24.4524 8.92998 24.9833C8.66294 25.6575 8.49992 26.7896 8.49992 26.7896L9.18802 27.7357Z" fill="#727271"/>
<circle cx="11.5957" cy="19.3064" r="2.23633" fill="#727271"/>
<circle cx="4.88762" cy="14.4897" r="1.03215" fill="#727271"/>
<path fill-rule="evenodd" clip-rule="evenodd" d="M17.9605 29.6279H0.585938V30.4881H1.7041V35.7348H0.585938V36.681H1.7041V39.6914H0.585938V41.2396H17.9605V39.6914H17.1864V36.767H17.9605V35.7348H17.1864V30.5741H17.9605V29.6279ZM2.56423 30.5741H16.3262V35.7348H2.56423V30.5741ZM16.3262 39.6914V36.767H2.56423V39.6914H16.3262Z" fill="#0A8FBF"/>
<path d="M4.71484 14.2317L1.10232 5.88847" stroke="#0A8FBF" stroke-width="2"/>
</svg>
